<?xml version="1.0" encoding="utf-8"?>
<!-- Svg Vector Icons : http://www.onlinewebfonts.com/icon -->
<!DOCTYPE svg PUBLIC "-//W3C//DTD SVG 1.1//EN" "http://www.w3.org/Graphics/SVG/1.1/DTD/svg11.dtd">
<svg version="1.1" xmlns="http://www.w3.org/2000/svg" xmlns:xlink="http://www.w3.org/1999/xlink" x="0px" y="0px" viewBox="0 0 256 256" enable-background="new 0 0 256 256" xml:space="preserve">
<metadata> Svg Vector Icons : http://www.onlinewebfonts.com/icon </metadata>
<g><g><g><path fill="#000000" d="M82.5,20.4c-7.4,2.1-14.4,8-17.7,14.9c-2.2,4.6-2.9,7.5-2.9,12.6c0,7.5,2.7,14.1,8.1,19.5l3.3,3.3l-1.9,1.1c-1.1,0.6-3.3,2.2-5,3.6l-3.1,2.5L60,77c-4.2-1-11-1-15.3,0C33.8,79.6,25,87.6,20.9,98.6c-1.2,3.1-1.2,3.9-1.2,10.5c0,6.6,0.1,7.4,1.2,10.5c2.2,6.2,6,11.5,11.2,15.7c1.2,1.1,1.7,1.6,1.2,1.8c-0.3,0.1-2.4,1.5-4.7,3c-8.6,5.8-14.8,14.4-17.6,24.9c-1,3.7-1.1,4.7-1.1,18.7c0,17-0.3,15.8,4.4,18.2c10.5,5.3,31.9,7.7,51.8,5.8c6-0.6,11.7-1.6,18.1-3.2l1.2-0.3l0.1,11.3l0.1,11.3l1.2,1.3c2.6,2.8,11.4,5.8,21.7,7.4c7.7,1.2,31.1,1.2,38.8,0c10.3-1.6,19.1-4.6,21.7-7.4l1.2-1.3l0.1-11.3l0.1-11.3l1.2,0.3c6.4,1.6,12.1,2.6,18.1,3.2c19.9,1.9,41.2-0.5,51.8-5.8c4.7-2.4,4.4-1.2,4.4-18.2c0-14,0-15-1.1-18.7c-2.9-10.5-9-19.2-17.6-24.9c-2.2-1.5-4.3-2.8-4.7-3c-0.5-0.1,0-0.7,1.2-1.8c5.2-4.3,9-9.6,11.2-15.7c1.2-3.1,1.2-3.9,1.2-10.5c0-6.6-0.1-7.4-1.2-10.5c-4.1-11-12.9-19-23.7-21.6c-4.5-1.1-12-1-16.2,0.2l-3.2,0.9l-1.4-1.3c-1.9-1.8-7-5.5-8.1-5.8c-0.7-0.2-0.4-0.7,2.3-3.4c11.2-11.3,11.3-28.6,0-39.8c-5.8-5.8-11.8-8.3-20-8.3c-5,0-8.4,0.8-12.5,2.8c-7.3,3.6-12.8,10.4-14.9,18.3c-0.9,3.5-0.9,10.7,0,14.1c1.2,4.5,3.7,8.8,7.2,12.5c1.8,1.8,3.1,3.4,2.9,3.5c-0.9,0.3-6.1,4-8.1,5.7c-4.8,4.2-9.2,11.4-10.8,17.4c-0.5,1.8-1,3.3-1.1,3.3c-0.1,0-0.6-1.4-1.1-3.1c-2.5-9.7-9.1-17.7-19.1-23.5c0,0,1.3-1.5,3-3.3c3.5-3.6,6.1-8.1,7.2-12.5c0.9-3.6,1-10.7,0-14.2c-2.5-9.7-10.7-17.9-20.4-20.4C93.6,19.3,86.1,19.4,82.5,20.4z M97.9,30.6c4.2,1.9,7.4,5.2,9.4,9.5c1.4,3,1.5,3.6,1.5,7.6c0,4-0.1,4.7-1.5,7.5c-5.8,12.3-21,15.1-30.4,5.7c-7.3-7.3-7.5-18.6-0.4-26.1c2.2-2.3,6.3-4.8,9.2-5.5C89.2,28.4,94.4,29,97.9,30.6z M172.6,30.5c5.8,2.7,9.7,7.8,10.9,14.1c2.3,12.3-9.3,23.9-21.6,21.6c-12.9-2.4-19.7-16.4-13.3-27.8c1.4-2.4,4.9-5.9,7.4-7.3C160.8,28.4,167.4,28.1,172.6,30.5z M97.5,77c11.7,3.1,20,13.3,20.9,25.8l0.2,2.6l-4.9,2.4c-4.2,2-5.4,2.9-8.8,6.3c-6,6-8.7,11.5-9.7,19.5c-1.4,11.4,3.3,22.7,12.5,30l2.2,1.7l-1.9,0.9c-2.8,1.4-9.2,6.3-11.3,8.7l-1.8,2.1l-0.3-4.8c-0.3-5.1-0.9-7.7-2.9-12.9c-2.8-7.4-10.4-16.2-17.4-20.3c-1.9-1.1-3.5-2-3.6-2.1c-0.1-0.1,0.3-0.5,0.9-0.9c2.4-1.7,6.1-5.5,8-8.4c3.9-5.9,5.5-11.4,5.5-18.5c0-6.1-0.6-8.7-3.6-14.7c-1.9-4-2.9-5.4-5.9-8.4l-3.6-3.6l2.1-1.4c3-2,5.7-3.2,8.5-4C86.1,76.2,94.3,76.2,97.5,77z M172,77c3,0.8,6.6,2.5,9.4,4.5l1.8,1.3l-3.3,3.4c-2.7,2.8-3.8,4.3-5.7,8.2c-2.9,6-3.5,8.6-3.5,14.7c0,7.1,1.7,12.6,5.5,18.5c1.9,2.9,5.6,6.7,8,8.4c0.6,0.4,1.1,0.8,0.9,0.9c-0.1,0.1-1.7,1.1-3.6,2.1c-7,4.1-14.5,12.9-17.4,20.3c-2,5.2-2.5,7.8-2.9,12.9l-0.3,4.8l-1.8-2.1c-2.1-2.4-8.5-7.3-11.3-8.7l-1.9-0.9l2.2-1.7c9.2-7.3,13.9-18.6,12.5-30c-1-8-3.7-13.5-9.7-19.4c-4-4-7.3-6.1-12.1-7.9l-2.4-0.9l0.1-2.7c0.2-4.2,1-7,3-11.2c3.4-7,10-12.4,17.6-14.5C160.5,76.2,168.7,76.2,172,77z M57.9,86.3c8.5,2.2,15,8.6,17.2,16.9c0.9,3.2,0.9,8.7,0,11.9c-2.2,8.4-9.4,15.4-17.7,17.1c-12.7,2.6-25.1-5.2-28-17.6C25.9,99.9,37,85.8,52,85.6C53.8,85.6,56.5,85.9,57.9,86.3z M209.5,86.3c8.4,2.2,15.1,9,17.1,17.3c4.6,19.5-15.4,35.3-33.5,26.6c-3.8-1.8-8.6-6.6-10.3-10.1c-4.7-9.5-3-20.1,4.1-27.4C192.7,86.7,201.4,84.2,209.5,86.3z M131.7,114.2c8.8,1.4,16.6,8.4,19,17c3,10.9-2.2,22.3-12.5,27.4l-3.9,1.9H128h-6.3l-3.9-1.9c-17.6-8.7-17.7-33.6-0.1-42.2C122.6,114,126.4,113.4,131.7,114.2z M59.4,143.1c1.8,0.4,5.2,1.7,7.6,2.8c3.6,1.8,5.1,2.9,8.4,6.1c4.6,4.6,7.2,8.9,8.8,14.6c1,3.4,1,4.6,1.1,15.5v11.8l-2.5,1c-6.2,2.4-17.5,3.9-30.5,3.9s-23.6-1.4-30.7-4.1l-2.3-0.9l0-11c0-13.1,0.5-16.2,3.7-22.4C29.8,147.1,44.7,140,59.4,143.1z M210.8,143.1c9.6,2.2,17.7,8.5,22.2,17.2c3.2,6.3,3.7,9.4,3.7,22.4l0,11l-2.3,0.9c-7.1,2.7-17.7,4.1-30.7,4.1c-13,0-24.2-1.5-30.5-3.9l-2.5-1v-11.8c0-10.9,0.1-12.1,1.1-15.5c1.6-5.7,4.2-10,8.8-14.6c6.5-6.5,13.8-9.5,22.8-9.6C205.6,142.4,209,142.7,210.8,143.1z M137,172c11.4,3.5,19.6,11.8,22.9,23c0.9,3,1.1,5,1.2,15.3l0.2,11.8l-1.8,0.7c-14.7,5.9-48.4,5.9-63.1,0l-1.8-0.7l0.2-11.8c0.2-10.3,0.4-12.3,1.2-15.3c3.6-12.5,13.9-21.7,26.7-24C126.3,170.4,133.4,170.8,137,172z"/></g></g></g>
</svg>